<mxfile host="app.diagrams.net" modified="2024-01-04T20:55:33.114Z" agent="Mozilla/5.0 (Windows NT 10.0; Win64; x64) AppleWebKit/537.36 (KHTML, like Gecko) Chrome/120.0.0.0 Safari/537.36" etag="tS_WPVxfdIe1aAy8yqAV" version="22.1.16" type="device">
  <diagram name="Page-1" id="2YBvvXClWsGukQMizWep">
    <mxGraphModel dx="1290" dy="653" grid="1" gridSize="10" guides="1" tooltips="1" connect="1" arrows="1" fold="1" page="1" pageScale="1" pageWidth="850" pageHeight="1100" math="0" shadow="0">
      <root>
        <mxCell id="0" />
        <mxCell id="1" parent="0" />
        <mxCell id="aM9ryv3xv72pqoxQDRHE-1" value=":Advisor" style="shape=umlLifeline;perimeter=lifelinePerimeter;whiteSpace=wrap;html=1;container=0;dropTarget=0;collapsible=0;recursiveResize=0;outlineConnect=0;portConstraint=eastwest;newEdgeStyle={&quot;edgeStyle&quot;:&quot;elbowEdgeStyle&quot;,&quot;elbow&quot;:&quot;vertical&quot;,&quot;curved&quot;:0,&quot;rounded&quot;:0};" parent="1" vertex="1">
          <mxGeometry x="340" y="50" width="125" height="1110" as="geometry" />
        </mxCell>
        <mxCell id="CiRCd_ejGZh0avgz7mVs-28" value="" style="html=1;points=[];perimeter=orthogonalPerimeter;outlineConnect=0;targetShapes=umlLifeline;portConstraint=eastwest;newEdgeStyle={&quot;edgeStyle&quot;:&quot;elbowEdgeStyle&quot;,&quot;elbow&quot;:&quot;vertical&quot;,&quot;curved&quot;:0,&quot;rounded&quot;:0};" parent="aM9ryv3xv72pqoxQDRHE-1" vertex="1">
          <mxGeometry x="57.5" y="580" width="10" height="50" as="geometry" />
        </mxCell>
        <mxCell id="CiRCd_ejGZh0avgz7mVs-29" value="printMenu()" style="html=1;verticalAlign=bottom;endArrow=block;edgeStyle=elbowEdgeStyle;elbow=vertical;curved=0;rounded=0;" parent="aM9ryv3xv72pqoxQDRHE-1" source="APZ2Q_NN2hLjj_MRzRQr-7" edge="1">
          <mxGeometry x="0.0357" relative="1" as="geometry">
            <mxPoint x="-85" y="580" as="sourcePoint" />
            <Array as="points">
              <mxPoint x="-115" y="580" />
            </Array>
            <mxPoint x="55" y="580" as="targetPoint" />
            <mxPoint x="-1" as="offset" />
          </mxGeometry>
        </mxCell>
        <mxCell id="7NCatoVx3G6ixJ5-V9fx-2" value="" style="html=1;points=[];perimeter=orthogonalPerimeter;outlineConnect=0;targetShapes=umlLifeline;portConstraint=eastwest;newEdgeStyle={&quot;edgeStyle&quot;:&quot;elbowEdgeStyle&quot;,&quot;elbow&quot;:&quot;vertical&quot;,&quot;curved&quot;:0,&quot;rounded&quot;:0};" parent="aM9ryv3xv72pqoxQDRHE-1" vertex="1">
          <mxGeometry x="57.5" y="670" width="10" height="70" as="geometry" />
        </mxCell>
        <mxCell id="APZ2Q_NN2hLjj_MRzRQr-1" value=":Person" style="shape=umlLifeline;perimeter=lifelinePerimeter;whiteSpace=wrap;html=1;container=0;dropTarget=0;collapsible=0;recursiveResize=0;outlineConnect=0;portConstraint=eastwest;newEdgeStyle={&quot;edgeStyle&quot;:&quot;elbowEdgeStyle&quot;,&quot;elbow&quot;:&quot;vertical&quot;,&quot;curved&quot;:0,&quot;rounded&quot;:0};" parent="1" vertex="1">
          <mxGeometry x="520" y="50" width="100" height="1110" as="geometry" />
        </mxCell>
        <mxCell id="CiRCd_ejGZh0avgz7mVs-23" value="" style="html=1;points=[];perimeter=orthogonalPerimeter;outlineConnect=0;targetShapes=umlLifeline;portConstraint=eastwest;newEdgeStyle={&quot;edgeStyle&quot;:&quot;elbowEdgeStyle&quot;,&quot;elbow&quot;:&quot;vertical&quot;,&quot;curved&quot;:0,&quot;rounded&quot;:0};" parent="APZ2Q_NN2hLjj_MRzRQr-1" vertex="1">
          <mxGeometry x="45" y="430" width="10" height="40" as="geometry" />
        </mxCell>
        <mxCell id="APZ2Q_NN2hLjj_MRzRQr-7" value=":Course Registration System" style="shape=umlLifeline;perimeter=lifelinePerimeter;whiteSpace=wrap;html=1;container=0;dropTarget=0;collapsible=0;recursiveResize=0;outlineConnect=0;portConstraint=eastwest;newEdgeStyle={&quot;edgeStyle&quot;:&quot;elbowEdgeStyle&quot;,&quot;elbow&quot;:&quot;vertical&quot;,&quot;curved&quot;:0,&quot;rounded&quot;:0};" parent="1" vertex="1">
          <mxGeometry x="180" y="50" width="100" height="1110" as="geometry" />
        </mxCell>
        <mxCell id="APZ2Q_NN2hLjj_MRzRQr-8" value="" style="html=1;points=[];perimeter=orthogonalPerimeter;outlineConnect=0;targetShapes=umlLifeline;portConstraint=eastwest;newEdgeStyle={&quot;edgeStyle&quot;:&quot;elbowEdgeStyle&quot;,&quot;elbow&quot;:&quot;vertical&quot;,&quot;curved&quot;:0,&quot;rounded&quot;:0};" parent="APZ2Q_NN2hLjj_MRzRQr-7" vertex="1">
          <mxGeometry x="45" y="70" width="10" height="1010" as="geometry" />
        </mxCell>
        <mxCell id="APZ2Q_NN2hLjj_MRzRQr-9" value="start()" style="html=1;verticalAlign=bottom;startArrow=oval;endArrow=block;startSize=8;edgeStyle=elbowEdgeStyle;elbow=vertical;curved=0;rounded=0;" parent="APZ2Q_NN2hLjj_MRzRQr-7" target="APZ2Q_NN2hLjj_MRzRQr-8" edge="1">
          <mxGeometry relative="1" as="geometry">
            <mxPoint x="-120" y="70" as="sourcePoint" />
          </mxGeometry>
        </mxCell>
        <mxCell id="CiRCd_ejGZh0avgz7mVs-17" value="mainMenu()" style="curved=1;rounded=0;" parent="APZ2Q_NN2hLjj_MRzRQr-7" source="APZ2Q_NN2hLjj_MRzRQr-8" target="APZ2Q_NN2hLjj_MRzRQr-8" edge="1">
          <mxGeometry relative="1" as="geometry">
            <Array as="points">
              <mxPoint x="130" y="230" />
              <mxPoint x="130" y="260" />
            </Array>
            <mxPoint x="70" y="230" as="sourcePoint" />
            <mxPoint x="70" y="260" as="targetPoint" />
          </mxGeometry>
        </mxCell>
        <mxCell id="CiRCd_ejGZh0avgz7mVs-21" value="printMenu()" style="curved=1;rounded=0;" parent="APZ2Q_NN2hLjj_MRzRQr-7" source="APZ2Q_NN2hLjj_MRzRQr-8" target="APZ2Q_NN2hLjj_MRzRQr-8" edge="1">
          <mxGeometry relative="1" as="geometry">
            <Array as="points">
              <mxPoint x="135" y="300" />
              <mxPoint x="135" y="330" />
            </Array>
            <mxPoint x="70" y="300" as="sourcePoint" />
            <mxPoint x="60" y="330" as="targetPoint" />
          </mxGeometry>
        </mxCell>
        <mxCell id="CiRCd_ejGZh0avgz7mVs-22" value="loginMenu()" style="curved=1;rounded=0;" parent="APZ2Q_NN2hLjj_MRzRQr-7" source="APZ2Q_NN2hLjj_MRzRQr-8" target="APZ2Q_NN2hLjj_MRzRQr-8" edge="1">
          <mxGeometry relative="1" as="geometry">
            <Array as="points">
              <mxPoint x="140" y="370" />
              <mxPoint x="140" y="400" />
            </Array>
            <mxPoint x="70" y="370" as="sourcePoint" />
            <mxPoint x="70" y="400" as="targetPoint" />
          </mxGeometry>
        </mxCell>
        <mxCell id="CiRCd_ejGZh0avgz7mVs-26" value="advisorMenu()" style="curved=1;rounded=0;" parent="APZ2Q_NN2hLjj_MRzRQr-7" source="APZ2Q_NN2hLjj_MRzRQr-8" target="APZ2Q_NN2hLjj_MRzRQr-8" edge="1">
          <mxGeometry relative="1" as="geometry">
            <Array as="points">
              <mxPoint x="145" y="490" />
              <mxPoint x="145" y="520" />
            </Array>
            <mxPoint x="65" y="490" as="sourcePoint" />
            <mxPoint x="70" y="520" as="targetPoint" />
          </mxGeometry>
        </mxCell>
        <mxCell id="7NCatoVx3G6ixJ5-V9fx-3" value="" style="html=1;points=[];perimeter=orthogonalPerimeter;outlineConnect=0;targetShapes=umlLifeline;portConstraint=eastwest;newEdgeStyle={&quot;edgeStyle&quot;:&quot;elbowEdgeStyle&quot;,&quot;elbow&quot;:&quot;vertical&quot;,&quot;curved&quot;:0,&quot;rounded&quot;:0};" parent="APZ2Q_NN2hLjj_MRzRQr-7" vertex="1">
          <mxGeometry x="217.5" y="770" width="10" height="240" as="geometry" />
        </mxCell>
        <mxCell id="7NCatoVx3G6ixJ5-V9fx-5" value="" style="html=1;points=[];perimeter=orthogonalPerimeter;outlineConnect=0;targetShapes=umlLifeline;portConstraint=eastwest;newEdgeStyle={&quot;edgeStyle&quot;:&quot;elbowEdgeStyle&quot;,&quot;elbow&quot;:&quot;vertical&quot;,&quot;curved&quot;:0,&quot;rounded&quot;:0};" parent="APZ2Q_NN2hLjj_MRzRQr-7" vertex="1">
          <mxGeometry x="555" y="790" width="10" height="40" as="geometry" />
        </mxCell>
        <mxCell id="CiRCd_ejGZh0avgz7mVs-46" value="loginMenu()" style="html=1;verticalAlign=bottom;endArrow=block;edgeStyle=elbowEdgeStyle;elbow=vertical;curved=0;rounded=0;" parent="APZ2Q_NN2hLjj_MRzRQr-7" edge="1">
          <mxGeometry x="0.0357" relative="1" as="geometry">
            <mxPoint x="215" y="1000" as="sourcePoint" />
            <Array as="points">
              <mxPoint x="95" y="1000" />
            </Array>
            <mxPoint x="50" y="1000" as="targetPoint" />
            <mxPoint x="-1" as="offset" />
          </mxGeometry>
        </mxCell>
        <mxCell id="CiRCd_ejGZh0avgz7mVs-47" value="exitProgram()" style="curved=1;rounded=0;" parent="APZ2Q_NN2hLjj_MRzRQr-7" edge="1">
          <mxGeometry x="-0.0023" relative="1" as="geometry">
            <Array as="points">
              <mxPoint x="145" y="1030" />
              <mxPoint x="145" y="1060" />
            </Array>
            <mxPoint x="55" y="1030" as="sourcePoint" />
            <mxPoint x="50" y="1060" as="targetPoint" />
            <mxPoint as="offset" />
          </mxGeometry>
        </mxCell>
        <mxCell id="7NCatoVx3G6ixJ5-V9fx-4" value="replyRequests()" style="html=1;verticalAlign=bottom;endArrow=block;edgeStyle=elbowEdgeStyle;elbow=vertical;curved=0;rounded=0;" parent="APZ2Q_NN2hLjj_MRzRQr-7" edge="1">
          <mxGeometry x="0.0357" relative="1" as="geometry">
            <mxPoint x="55" y="770" as="sourcePoint" />
            <Array as="points">
              <mxPoint x="50" y="770" />
            </Array>
            <mxPoint x="220" y="770" as="targetPoint" />
            <mxPoint x="-1" as="offset" />
          </mxGeometry>
        </mxCell>
        <mxCell id="7NCatoVx3G6ixJ5-V9fx-7" value="ALT" style="shape=umlFrame;whiteSpace=wrap;html=1;pointerEvents=0;" parent="APZ2Q_NN2hLjj_MRzRQr-7" vertex="1">
          <mxGeometry x="245" y="850" width="360" height="110" as="geometry" />
        </mxCell>
        <mxCell id="7NCatoVx3G6ixJ5-V9fx-10" value="approveRequests()" style="html=1;verticalAlign=bottom;endArrow=block;edgeStyle=elbowEdgeStyle;elbow=vertical;curved=0;rounded=0;" parent="APZ2Q_NN2hLjj_MRzRQr-7" edge="1">
          <mxGeometry x="0.0357" relative="1" as="geometry">
            <mxPoint x="235" y="790" as="sourcePoint" />
            <Array as="points">
              <mxPoint x="230" y="790" />
            </Array>
            <mxPoint x="559.5" y="790" as="targetPoint" />
            <mxPoint x="-1" as="offset" />
          </mxGeometry>
        </mxCell>
        <mxCell id="7NCatoVx3G6ixJ5-V9fx-11" value="rejectRequests()" style="html=1;verticalAlign=bottom;endArrow=block;edgeStyle=elbowEdgeStyle;elbow=vertical;curved=0;rounded=0;" parent="APZ2Q_NN2hLjj_MRzRQr-7" source="7NCatoVx3G6ixJ5-V9fx-9" edge="1">
          <mxGeometry x="0.5" relative="1" as="geometry">
            <mxPoint x="230" y="890" as="sourcePoint" />
            <Array as="points">
              <mxPoint x="225" y="890" />
            </Array>
            <mxPoint x="555" y="890" as="targetPoint" />
            <mxPoint as="offset" />
          </mxGeometry>
        </mxCell>
        <mxCell id="7NCatoVx3G6ixJ5-V9fx-12" value="" style="html=1;verticalAlign=bottom;endArrow=block;edgeStyle=elbowEdgeStyle;elbow=vertical;curved=0;rounded=0;" parent="APZ2Q_NN2hLjj_MRzRQr-7" target="7NCatoVx3G6ixJ5-V9fx-9" edge="1">
          <mxGeometry x="0.0357" relative="1" as="geometry">
            <mxPoint x="230" y="890" as="sourcePoint" />
            <Array as="points" />
            <mxPoint x="555" y="890" as="targetPoint" />
            <mxPoint x="-1" as="offset" />
          </mxGeometry>
        </mxCell>
        <mxCell id="7NCatoVx3G6ixJ5-V9fx-9" value="" style="html=1;points=[];perimeter=orthogonalPerimeter;outlineConnect=0;targetShapes=umlLifeline;portConstraint=eastwest;newEdgeStyle={&quot;edgeStyle&quot;:&quot;elbowEdgeStyle&quot;,&quot;elbow&quot;:&quot;vertical&quot;,&quot;curved&quot;:0,&quot;rounded&quot;:0};" parent="APZ2Q_NN2hLjj_MRzRQr-7" vertex="1">
          <mxGeometry x="555" y="890" width="10" height="40" as="geometry" />
        </mxCell>
        <mxCell id="OXujAiy0W8AZsAGyj7_A-1" value=":JSONReader" style="shape=umlLifeline;perimeter=lifelinePerimeter;whiteSpace=wrap;html=1;container=0;dropTarget=0;collapsible=0;recursiveResize=0;outlineConnect=0;portConstraint=eastwest;newEdgeStyle={&quot;edgeStyle&quot;:&quot;elbowEdgeStyle&quot;,&quot;elbow&quot;:&quot;vertical&quot;,&quot;curved&quot;:0,&quot;rounded&quot;:0};" parent="1" vertex="1">
          <mxGeometry x="850" y="50" width="100" height="1110" as="geometry" />
        </mxCell>
        <mxCell id="OXujAiy0W8AZsAGyj7_A-2" value="" style="html=1;points=[];perimeter=orthogonalPerimeter;outlineConnect=0;targetShapes=umlLifeline;portConstraint=eastwest;newEdgeStyle={&quot;edgeStyle&quot;:&quot;elbowEdgeStyle&quot;,&quot;elbow&quot;:&quot;vertical&quot;,&quot;curved&quot;:0,&quot;rounded&quot;:0};" parent="OXujAiy0W8AZsAGyj7_A-1" vertex="1">
          <mxGeometry x="45" y="90" width="10" height="40" as="geometry" />
        </mxCell>
        <mxCell id="CiRCd_ejGZh0avgz7mVs-2" value="" style="html=1;points=[];perimeter=orthogonalPerimeter;outlineConnect=0;targetShapes=umlLifeline;portConstraint=eastwest;newEdgeStyle={&quot;edgeStyle&quot;:&quot;elbowEdgeStyle&quot;,&quot;elbow&quot;:&quot;vertical&quot;,&quot;curved&quot;:0,&quot;rounded&quot;:0};" parent="OXujAiy0W8AZsAGyj7_A-1" vertex="1">
          <mxGeometry x="45" y="160" width="10" height="40" as="geometry" />
        </mxCell>
        <mxCell id="CiRCd_ejGZh0avgz7mVs-15" value="readJson()" style="curved=1;rounded=0;" parent="OXujAiy0W8AZsAGyj7_A-1" source="CiRCd_ejGZh0avgz7mVs-2" target="OXujAiy0W8AZsAGyj7_A-1" edge="1">
          <mxGeometry relative="1" as="geometry">
            <Array as="points">
              <mxPoint x="115" y="170" />
              <mxPoint x="115" y="200" />
            </Array>
            <mxPoint x="65" y="170" as="sourcePoint" />
            <mxPoint x="55" y="200" as="targetPoint" />
          </mxGeometry>
        </mxCell>
        <mxCell id="OXujAiy0W8AZsAGyj7_A-5" value="readDepartments()" style="html=1;verticalAlign=bottom;endArrow=block;edgeStyle=elbowEdgeStyle;elbow=vertical;curved=0;rounded=0;" parent="1" target="OXujAiy0W8AZsAGyj7_A-1" edge="1">
          <mxGeometry x="0.3633" relative="1" as="geometry">
            <mxPoint x="770" y="140" as="sourcePoint" />
            <Array as="points">
              <mxPoint x="240" y="140" />
            </Array>
            <mxPoint x="1265" y="140" as="targetPoint" />
            <mxPoint as="offset" />
          </mxGeometry>
        </mxCell>
        <mxCell id="OXujAiy0W8AZsAGyj7_A-14" value=":Registration" style="shape=umlLifeline;perimeter=lifelinePerimeter;whiteSpace=wrap;html=1;container=0;dropTarget=0;collapsible=0;recursiveResize=0;outlineConnect=0;portConstraint=eastwest;newEdgeStyle={&quot;edgeStyle&quot;:&quot;elbowEdgeStyle&quot;,&quot;elbow&quot;:&quot;vertical&quot;,&quot;curved&quot;:0,&quot;rounded&quot;:0};" parent="1" vertex="1">
          <mxGeometry x="690" y="50" width="100" height="1110" as="geometry" />
        </mxCell>
        <mxCell id="CiRCd_ejGZh0avgz7mVs-4" value="start(University)" style="html=1;verticalAlign=bottom;startArrow=oval;endArrow=block;startSize=8;edgeStyle=elbowEdgeStyle;elbow=vertical;curved=0;rounded=0;" parent="1" target="OXujAiy0W8AZsAGyj7_A-1" edge="1">
          <mxGeometry x="0.0192" relative="1" as="geometry">
            <mxPoint x="235" y="210.0009523809523" as="sourcePoint" />
            <mxPoint x="1260" y="210.0009523809523" as="targetPoint" />
            <mxPoint as="offset" />
          </mxGeometry>
        </mxCell>
        <mxCell id="CiRCd_ejGZh0avgz7mVs-25" value="login(userName,password)" style="html=1;verticalAlign=bottom;endArrow=block;edgeStyle=elbowEdgeStyle;elbow=vertical;curved=0;rounded=0;" parent="1" source="APZ2Q_NN2hLjj_MRzRQr-8" target="APZ2Q_NN2hLjj_MRzRQr-1" edge="1">
          <mxGeometry x="0.0009" relative="1" as="geometry">
            <mxPoint x="250" y="480" as="sourcePoint" />
            <Array as="points">
              <mxPoint x="310.75" y="480" />
            </Array>
            <mxPoint x="680.75" y="480" as="targetPoint" />
            <mxPoint as="offset" />
          </mxGeometry>
        </mxCell>
        <mxCell id="CiRCd_ejGZh0avgz7mVs-27" value="login" style="html=1;verticalAlign=bottom;endArrow=open;dashed=1;endSize=8;edgeStyle=elbowEdgeStyle;elbow=vertical;curved=0;rounded=0;" parent="1" source="CiRCd_ejGZh0avgz7mVs-23" target="APZ2Q_NN2hLjj_MRzRQr-8" edge="1">
          <mxGeometry x="-0.0244" relative="1" as="geometry">
            <mxPoint x="250" y="520" as="targetPoint" />
            <Array as="points">
              <mxPoint x="435" y="520" />
              <mxPoint x="365" y="620" />
            </Array>
            <mxPoint x="560" y="520" as="sourcePoint" />
            <mxPoint as="offset" />
          </mxGeometry>
        </mxCell>
        <mxCell id="7NCatoVx3G6ixJ5-V9fx-1" value="printRequests()" style="html=1;verticalAlign=bottom;endArrow=block;edgeStyle=elbowEdgeStyle;elbow=vertical;curved=0;rounded=0;" parent="1" edge="1">
          <mxGeometry x="0.0357" relative="1" as="geometry">
            <mxPoint x="240" y="720" as="sourcePoint" />
            <Array as="points">
              <mxPoint x="235" y="720" />
            </Array>
            <mxPoint x="405" y="720" as="targetPoint" />
            <mxPoint x="-1" as="offset" />
          </mxGeometry>
        </mxCell>
        <mxCell id="oaj-hUTwe3Emthozaf9C-1" value=" checkAndPrintOverlap(request)" style="curved=1;rounded=0;" edge="1" parent="1">
          <mxGeometry relative="1" as="geometry">
            <Array as="points">
              <mxPoint x="500" y="730" />
              <mxPoint x="500" y="760" />
            </Array>
            <mxPoint x="410" y="730" as="sourcePoint" />
            <mxPoint x="410" y="760" as="targetPoint" />
          </mxGeometry>
        </mxCell>
      </root>
    </mxGraphModel>
  </diagram>
</mxfile>
